PathFileType	4	(X/Y/Z)	C:/Users/beibeiliu/ov580/test_trc/User2\sequence.13_training_dense_left.trc
DataRate	CameraRate	NumFrames	NumMarkers	Units	OrigDataRate	OrigDataStartFrame	OrigNumFrames
120	120	8	19	mm	120	295	336
Frame#	Time	ThumbCMC			ThumbMCP			ThumbIP			ThumbTip			IndexMCP			IndexPIP			IndexTip			MiddleMCP			MiddlePIP			MiddleTip			RingMCP			RingPIP			RingTip			PinkyMCP			PinkyPIP			PinkyTip			BackHand1			BackHand2			BackHand3	
		X0	Y0	Z0	X1	Y1	Z1	X2	Y2	Z2	X3	Y3	Z3	X4	Y4	Z4	X5	Y5	Z5	X6	Y6	Z6	X7	Y7	Z7	X8	Y8	Z8	X9	Y9	Z9	X10	Y10	Z10	X11	Y11	Z11	X12	Y12	Z12	X13	Y13	Z13	X14	Y14	Z14	X15	Y15	Z15	X16	Y16	Z16	X17	Y17	Z17	X18	Y18	Z18	
294	2.45	-117.335	18.32	100.064	-82.9339	21.6326	92.4057	-51.1302	13.7669	83.8443	-33.9249	-8.42958	79.9652	-106.631	-25.1996	32.6629	-81.976	-37.4712	10.5512	-46.3067	-38.4342	17.7222	-106.752	-61.174	35.4331	-79.0704	-73.7639	19.1924	-38.0933	-67.6937	32.8693	-88.9167	-74.1754	59.2763	-55.9445	-70.7811	66.3334	-57.7433	-47.9808	92.6673	-80.5974	-81.2569	85.6315	-59.6028	-60.3759	101.183	-82.3559	-38.925	113.976	-138.088	-56.2419	90.351	-161.036	-43.9458	118.602	-148.266	-16.1528	90.8885	
295	2.45833	-128.056	15.5749	98.3734	-91.7415	30.3278	85.7118	-60.8949	23.2641	75.8957	-37.145	3.67681	68.1872	-108.83	-25.5726	24.2837	-83.3845	-33.382	6.49021	-51.9404	-28.1829	10.9705	-106.242	-55.1975	33.3879	-75.804	-67.9764	15.939	-37.3571	-55.2138	28.355	-83.7065	-66.1361	55.0558	-50.2911	-57.8392	62.9744	-58.7872	-32.1166	83.6104	-75.4878	-73.2076	84.5371	-54.5838	-47.9154	94.5085	-79.5084	-29.511	108.42	-135.564	-55.1443	89.4022	-153.982	-48.4425	114.169	-149.291	-20.4929	88.1908	
296	2.46667	-135.47	15.8152	94.4491	-103.391	31.1583	81.2672	-67.6503	31.7298	63.5604	-45.7698	14.5135	60.0249	-112.374	-25.7124	22.1585	-91.5221	-26.857	0.858981	-55.8429	-19.2571	5.77967	-103.481	-53.9991	27.8405	-71.6818	-58.3186	10.0437	-38.6521	-44.9474	22.3299	-79.5942	-60.5504	51.8013	-48.2278	-47.6151	56.6799	-58.0229	-23.7431	80.7902	-67.6627	-63.9204	78.6465	-52.4112	-36.3957	86.0323	-73.0385	-20.8996	100.39	-128.976	-60.0341	86.7351	-149.993	-48.353	114.494	-152.155	-24.3453	86.7096	
297	2.475	-139.762	15.6496	85.8781	-112.867	31.5545	74.51	-80.9931	38.3663	57.1263	-55.9705	21.9414	52.4191	-118.59	-25.51	18.7225	-95.8903	-24.2557	-4.869	-62.3531	-13.2062	-2.14879	-103.033	-56.1252	29.4446	-72.5092	-53.703	5.90178	-39.829	-31.2826	14.3753	-75.5041	-55.4547	46.8707	-48.2581	-39.686	50.6776	-63.2446	-11.5786	73.0106	-66.4313	-58.813	75.9448	-49.7667	-30.7149	77.4812	-76.2605	-14.3752	97.4382	-124.719	-57.3366	89.9809	-144.84	-55.3594	114.116	-148.64	-28.8985	82.6374	
298	2.48333	-145.789	13.0296	83.9344	-123.428	35.9179	67.4509	-92.1476	40.325	47.6013	-68.2011	30.1606	42.1299	-122.943	-29.892	16.3809	-102.281	-27.6183	-7.99194	-72.3384	-9.20686	-11.8679	-105.73	-53.419	21.6118	-77.3747	-52.8121	0.392199	-43.0427	-27.0021	7.17657	-76.6977	-49.502	39.9917	-53.4	-26.8483	41.1609	-64.9284	-8.08614	65.7299	-66.0368	-50.3069	66.1404	-50.6994	-21.1373	72.465	-70.8633	-8.89684	90.6704	-124.237	-54.9168	85.4969	-143.016	-52.9646	112.928	-151.724	-31.2656	82.2994	
299	2.49167	-151.745	10.949	79.3426	-133.182	31.1324	63.1006	-104.473	41.0603	37.1471	-77.4636	29.8942	28.0389	-128.209	-33.1895	13.0569	-112.06	-32.3965	-12.663	-86.6776	-15.0552	-20.3611	-106.848	-58.2322	19.8267	-83.1401	-55.1863	-4.02465	-55.5443	-28.4778	-6.7872	-80.0258	-51.385	39.3094	-56.1397	-27.9723	34.5618	-70.2694	-4.84144	54.7922	-67.1902	-50.3209	63.558	-53.7583	-21.778	58.4297	-77.455	-4.34198	81.233	-123.122	-57.1466	84.3957	-139.339	-55.3551	111.697	-152.238	-34.0981	80.6799	
300	2.5	-157.102	8.82828	81.8627	-138.834	28.6812	53.3442	-115.116	36.6062	31.2564	-87.8345	29.3419	19.7048	-135.418	-39.222	12.2207	-125.41	-35.3211	-17.6164	-95.8411	-20.7478	-27.5849	-113.354	-61.3722	19.2214	-90.7887	-59.2816	-9.05617	-65.8186	-32.1566	-15.0506	-83.8728	-54.2316	30.6323	-64.8738	-33.1936	22.0492	-75.3899	-5.8953	49.8	-68.3155	-50.2838	53.5643	-54.9863	-22.0767	50.6936	-74.1242	-5.67387	69.7069	-123.917	-55.8107	82.6572	-140.678	-54.297	107.562	-153.485	-38.1098	80.5973	
301	2.50833	-157.081	3.84522	77.4376	-144.366	24.2423	47.9903	-123.552	34.3944	23.3599	-99.2383	24.8001	11.7861	-143.496	-44.5455	15.2764	-136.08	-46.4365	-16.9837	-111.704	-28.1104	-33.8323	-122.402	-66.1618	21.29	-98.3555	-67.4578	-12.5949	-73.3178	-43.1847	-19.8828	-94.4712	-59.1652	28.0825	-69.5061	-41.0604	15.7142	-82.4444	-10.7487	38.4043	-73.2463	-56.9233	49.2196	-59.6763	-27.4635	41.6226	-77.2148	-8.82988	60.2266	-122.793	-60.462	83.7427	-138.151	-56.647	110.626	-158.593	-40.126	80.1768	
